<svg width="50" height="50" viewBox="0 0 50 50" fill="none" xmlns="http://www.w3.org/2000/svg">
<mask id="mask0_1_189" style="mask-type:alpha" maskUnits="userSpaceOnUse" x="0" y="0" width="50" height="50">
<rect width="50" height="50" fill="#D9D9D9"/>
</mask>
<g mask="url(#mask0_1_189)">
<path d="M45 47.9167L38.5938 41.5625C37.9688 41.9445 37.3004 42.2309 36.5885 42.4219C35.8767 42.6129 35.1389 42.7083 34.375 42.7083C32.0833 42.7083 30.1215 41.8924 28.4896 40.2604C26.8576 38.6285 26.0417 36.6667 26.0417 34.375C26.0417 32.0833 26.8576 30.1215 28.4896 28.4896C30.1215 26.8576 32.0833 26.0417 34.375 26.0417C36.6667 26.0417 38.6285 26.8576 40.2604 28.4896C41.8924 30.1215 42.7083 32.0833 42.7083 34.375C42.7083 35.1736 42.6042 35.9288 42.3958 36.6406C42.1875 37.3524 41.8924 38.0208 41.5104 38.6458L47.9167 45L45 47.9167ZM11.4583 42.7083C9.16667 42.7083 7.20486 41.8924 5.57292 40.2604C3.94097 38.6285 3.125 36.6667 3.125 34.375C3.125 32.0833 3.94097 30.1215 5.57292 28.4896C7.20486 26.8576 9.16667 26.0417 11.4583 26.0417C13.75 26.0417 15.7118 26.8576 17.3438 28.4896C18.9757 30.1215 19.7917 32.0833 19.7917 34.375C19.7917 36.6667 18.9757 38.6285 17.3438 40.2604C15.7118 41.8924 13.75 42.7083 11.4583 42.7083ZM11.4583 38.5417C12.6042 38.5417 13.5851 38.1337 14.401 37.3177C15.217 36.5017 15.625 35.5208 15.625 34.375C15.625 33.2292 15.217 32.2483 14.401 31.4323C13.5851 30.6163 12.6042 30.2083 11.4583 30.2083C10.3125 30.2083 9.3316 30.6163 8.51563 31.4323C7.69965 32.2483 7.29167 33.2292 7.29167 34.375C7.29167 35.5208 7.69965 36.5017 8.51563 37.3177C9.3316 38.1337 10.3125 38.5417 11.4583 38.5417ZM34.375 38.5417C35.5208 38.5417 36.5017 38.1337 37.3177 37.3177C38.1337 36.5017 38.5417 35.5208 38.5417 34.375C38.5417 33.2292 38.1337 32.2483 37.3177 31.4323C36.5017 30.6163 35.5208 30.2083 34.375 30.2083C33.2292 30.2083 32.2483 30.6163 31.4323 31.4323C30.6163 32.2483 30.2083 33.2292 30.2083 34.375C30.2083 35.5208 30.6163 36.5017 31.4323 37.3177C32.2483 38.1337 33.2292 38.5417 34.375 38.5417ZM11.4583 19.7917C9.16667 19.7917 7.20486 18.9757 5.57292 17.3438C3.94097 15.7118 3.125 13.75 3.125 11.4583C3.125 9.16667 3.94097 7.20486 5.57292 5.57292C7.20486 3.94097 9.16667 3.125 11.4583 3.125C13.75 3.125 15.7118 3.94097 17.3438 5.57292C18.9757 7.20486 19.7917 9.16667 19.7917 11.4583C19.7917 13.75 18.9757 15.7118 17.3438 17.3438C15.7118 18.9757 13.75 19.7917 11.4583 19.7917ZM34.375 19.7917C32.0833 19.7917 30.1215 18.9757 28.4896 17.3438C26.8576 15.7118 26.0417 13.75 26.0417 11.4583C26.0417 9.16667 26.8576 7.20486 28.4896 5.57292C30.1215 3.94097 32.0833 3.125 34.375 3.125C36.6667 3.125 38.6285 3.94097 40.2604 5.57292C41.8924 7.20486 42.7083 9.16667 42.7083 11.4583C42.7083 13.75 41.8924 15.7118 40.2604 17.3438C38.6285 18.9757 36.6667 19.7917 34.375 19.7917ZM11.4583 15.625C12.6042 15.625 13.5851 15.217 14.401 14.401C15.217 13.5851 15.625 12.6042 15.625 11.4583C15.625 10.3125 15.217 9.3316 14.401 8.51563C13.5851 7.69965 12.6042 7.29167 11.4583 7.29167C10.3125 7.29167 9.3316 7.69965 8.51563 8.51563C7.69965 9.3316 7.29167 10.3125 7.29167 11.4583C7.29167 12.6042 7.69965 13.5851 8.51563 14.401C9.3316 15.217 10.3125 15.625 11.4583 15.625ZM34.375 15.625C35.5208 15.625 36.5017 15.217 37.3177 14.401C38.1337 13.5851 38.5417 12.6042 38.5417 11.4583C38.5417 10.3125 38.1337 9.3316 37.3177 8.51563C36.5017 7.69965 35.5208 7.29167 34.375 7.29167C33.2292 7.29167 32.2483 7.69965 31.4323 8.51563C30.6163 9.3316 30.2083 10.3125 30.2083 11.4583C30.2083 12.6042 30.6163 13.5851 31.4323 14.401C32.2483 15.217 33.2292 15.625 34.375 15.625Z" fill="white"/>
</g>
</svg>
