<svg width="51" height="51" viewBox="0 0 51 51" fill="none" xmlns="http://www.w3.org/2000/svg">
<mask id="mask0_1_169" style="mask-type:alpha" maskUnits="userSpaceOnUse" x="0" y="0" width="51" height="51">
<rect x="0.273193" y="0.92334" width="50" height="50" fill="#D9D9D9"/>
</mask>
<g mask="url(#mask0_1_169)">
<path d="M2.35651 46.59V38.2567C2.35651 37.0762 2.76449 36.0866 3.58046 35.288C4.39644 34.4894 5.37734 34.09 6.52317 34.09H13.3461C14.0405 34.09 14.7003 34.2637 15.3253 34.6109C15.9503 34.9581 16.4537 35.4269 16.8357 36.0171C17.8426 37.3713 19.0839 38.4303 20.5596 39.1942C22.0353 39.9581 23.6065 40.34 25.2732 40.34C26.9746 40.34 28.5631 39.9581 30.0388 39.1942C31.5145 38.4303 32.7385 37.3713 33.7107 36.0171C34.1621 35.4269 34.6916 34.9581 35.2992 34.6109C35.9069 34.2637 36.5405 34.09 37.2003 34.09H44.0232C45.2037 34.09 46.1933 34.4894 46.9919 35.288C47.7905 36.0866 48.1898 37.0762 48.1898 38.2567V46.59H33.6065V41.8505C32.3912 42.7185 31.0805 43.3782 29.6742 43.8296C28.268 44.281 26.801 44.5067 25.2732 44.5067C23.7801 44.5067 22.3218 44.2723 20.8982 43.8036C19.4746 43.3348 18.1551 42.6664 16.9398 41.7984V46.59H2.35651ZM25.2732 38.2567C23.9537 38.2567 22.7037 37.9529 21.5232 37.3453C20.3426 36.7376 19.353 35.8956 18.5544 34.8192C17.9641 33.9512 17.2263 33.2654 16.3409 32.7619C15.4555 32.2585 14.4919 32.0067 13.4503 32.0067C14.2141 30.722 15.8287 29.7064 18.294 28.9598C20.7593 28.2133 23.0857 27.84 25.2732 27.84C27.4607 27.84 29.7871 28.2133 32.2523 28.9598C34.7176 29.7064 36.3322 30.722 37.0961 32.0067C36.0891 32.0067 35.1343 32.2585 34.2315 32.7619C33.3287 33.2654 32.5822 33.9512 31.9919 34.8192C31.228 35.9303 30.2558 36.781 29.0753 37.3713C27.8947 37.9616 26.6273 38.2567 25.2732 38.2567ZM8.60651 32.0067C6.8704 32.0067 5.3947 31.3991 4.17942 30.1838C2.96415 28.9685 2.35651 27.4928 2.35651 25.7567C2.35651 23.9859 2.96415 22.5015 4.17942 21.3036C5.3947 20.1057 6.8704 19.5067 8.60651 19.5067C10.3773 19.5067 11.8617 20.1057 13.0596 21.3036C14.2575 22.5015 14.8565 23.9859 14.8565 25.7567C14.8565 27.4928 14.2575 28.9685 13.0596 30.1838C11.8617 31.3991 10.3773 32.0067 8.60651 32.0067ZM41.9398 32.0067C40.2037 32.0067 38.728 31.3991 37.5128 30.1838C36.2975 28.9685 35.6898 27.4928 35.6898 25.7567C35.6898 23.9859 36.2975 22.5015 37.5128 21.3036C38.728 20.1057 40.2037 19.5067 41.9398 19.5067C43.7107 19.5067 45.1951 20.1057 46.393 21.3036C47.5909 22.5015 48.1898 23.9859 48.1898 25.7567C48.1898 27.4928 47.5909 28.9685 46.393 30.1838C45.1951 31.3991 43.7107 32.0067 41.9398 32.0067ZM25.2732 25.7567C23.5371 25.7567 22.0614 25.1491 20.8461 23.9338C19.6308 22.7185 19.0232 21.2428 19.0232 19.5067C19.0232 17.7359 19.6308 16.2515 20.8461 15.0536C22.0614 13.8557 23.5371 13.2567 25.2732 13.2567C27.044 13.2567 28.5284 13.8557 29.7263 15.0536C30.9242 16.2515 31.5232 17.7359 31.5232 19.5067C31.5232 21.2428 30.9242 22.7185 29.7263 23.9338C28.5284 25.1491 27.044 25.7567 25.2732 25.7567Z" fill="#E0DEDE"/>
</g>
</svg>
