<svg width="51" height="51" viewBox="0 0 51 51" fill="none" xmlns="http://www.w3.org/2000/svg">
<mask id="mask0_1_157" style="mask-type:alpha" maskUnits="userSpaceOnUse" x="0" y="0" width="51" height="51">
<rect x="0.273193" y="0.439331" width="50" height="50" fill="#D9D9D9"/>
</mask>
<g mask="url(#mask0_1_157)">
<path d="M25.2732 50.2726C24.3704 50.2726 23.5544 50.0556 22.8253 49.6216C22.0961 49.1876 21.5232 48.606 21.1065 47.8768C19.9607 47.8768 18.9798 47.4688 18.1638 46.6528C17.3478 45.8369 16.9398 44.856 16.9398 43.7101V36.3143C14.8912 34.9601 13.2506 33.1719 12.018 30.9497C10.7853 28.7275 10.169 26.3143 10.169 23.7101C10.169 19.5087 11.636 15.941 14.57 13.007C17.5041 10.073 21.0718 8.60596 25.2732 8.60596C29.4746 8.60596 33.0423 10.073 35.9763 13.007C38.9103 15.941 40.3773 19.5087 40.3773 23.7101C40.3773 26.3837 39.761 28.8143 38.5284 31.0018C37.2957 33.1893 35.6551 34.9601 33.6065 36.3143V43.7101C33.6065 44.856 33.1985 45.8369 32.3826 46.6528C31.5666 47.4688 30.5857 47.8768 29.4398 47.8768C29.0232 48.606 28.4503 49.1876 27.7211 49.6216C26.9919 50.0556 26.176 50.2726 25.2732 50.2726ZM21.1065 43.7101H29.4398V41.8351H21.1065V43.7101ZM21.1065 39.7518H29.4398V37.7726H21.1065V39.7518ZM20.6898 33.606H23.7107V27.981L19.1273 23.3976L21.3148 21.2101L25.2732 25.1685L29.2315 21.2101L31.419 23.3976L26.8357 27.981V33.606H29.8565C31.7315 32.7032 33.2593 31.3751 34.4398 29.6216C35.6204 27.8681 36.2107 25.8976 36.2107 23.7101C36.2107 20.6546 35.1516 18.0678 33.0336 15.9497C30.9155 13.8317 28.3287 12.7726 25.2732 12.7726C22.2176 12.7726 19.6308 13.8317 17.5128 15.9497C15.3947 18.0678 14.3357 20.6546 14.3357 23.7101C14.3357 25.8976 14.926 27.8681 16.1065 29.6216C17.2871 31.3751 18.8148 32.7032 20.6898 33.606Z" fill="#E0DEDE"/>
</g>
</svg>
