<svg width="50" height="50" viewBox="0 0 50 50" fill="none" xmlns="http://www.w3.org/2000/svg">
<mask id="mask0_1_184" style="mask-type:alpha" maskUnits="userSpaceOnUse" x="0" y="0" width="50" height="50">
<rect width="50" height="50" fill="#D9D9D9"/>
</mask>
<g mask="url(#mask0_1_184)">
<path d="M2.08331 41.6666V35.8333C2.08331 34.6527 2.38713 33.5676 2.99477 32.578C3.60241 31.5885 4.4097 30.8333 5.41665 30.3124C7.56942 29.236 9.75692 28.4287 11.9791 27.8905C14.2014 27.3524 16.4583 27.0833 18.75 27.0833C19.8611 27.0833 20.9809 27.144 22.1094 27.2655C23.2378 27.3871 24.3576 27.5867 25.4687 27.8645C25.0173 28.4548 24.6267 29.0711 24.2969 29.7135C23.967 30.3558 23.6979 31.0242 23.4896 31.7187C22.691 31.5451 21.901 31.4235 21.1198 31.3541C20.3385 31.2846 19.5486 31.2499 18.75 31.2499C16.8055 31.2499 14.8785 31.4843 12.9687 31.953C11.059 32.4218 9.16665 33.1249 7.29165 34.0624C6.97915 34.236 6.72741 34.4791 6.53644 34.7916C6.34547 35.1041 6.24998 35.4513 6.24998 35.8333V37.4999H23.0729C23.2118 38.2638 23.4028 38.993 23.6458 39.6874C23.8889 40.3819 24.2014 41.0416 24.5833 41.6666H2.08331ZM18.75 24.9999C16.4583 24.9999 14.4965 24.1839 12.8646 22.552C11.2326 20.9201 10.4166 18.9583 10.4166 16.6666C10.4166 14.3749 11.2326 12.4131 12.8646 10.7812C14.4965 9.14922 16.4583 8.33325 18.75 8.33325C21.0416 8.33325 23.0035 9.14922 24.6354 10.7812C26.2673 12.4131 27.0833 14.3749 27.0833 16.6666C27.0833 18.9583 26.2673 20.9201 24.6354 22.552C23.0035 24.1839 21.0416 24.9999 18.75 24.9999ZM39.5833 16.6666C39.5833 18.9583 38.7673 20.9201 37.1354 22.552C35.5035 24.1839 33.5416 24.9999 31.25 24.9999C30.868 24.9999 30.3819 24.9565 29.7916 24.8697C29.2014 24.7829 28.7153 24.6874 28.3333 24.5833C29.2708 23.4721 29.9913 22.2395 30.4948 20.8853C30.9982 19.5312 31.25 18.1249 31.25 16.6666C31.25 15.2083 30.9982 13.802 30.4948 12.4478C29.9913 11.0937 29.2708 9.86103 28.3333 8.74992C28.8194 8.57631 29.3055 8.46346 29.7916 8.41138C30.2778 8.35929 30.7639 8.33325 31.25 8.33325C33.5416 8.33325 35.5035 9.14922 37.1354 10.7812C38.7673 12.4131 39.5833 14.3749 39.5833 16.6666ZM18.75 20.8333C19.8958 20.8333 20.8767 20.4253 21.6927 19.6093C22.5087 18.7933 22.9166 17.8124 22.9166 16.6666C22.9166 15.5208 22.5087 14.5398 21.6927 13.7239C20.8767 12.9079 19.8958 12.4999 18.75 12.4999C17.6041 12.4999 16.6232 12.9079 15.8073 13.7239C14.9913 14.5398 14.5833 15.5208 14.5833 16.6666C14.5833 17.8124 14.9913 18.7933 15.8073 19.6093C16.6232 20.4253 17.6041 20.8333 18.75 20.8333ZM35.4166 39.5833C36.5972 39.5833 37.5781 39.236 38.3594 38.5416C39.1406 37.8471 39.5486 36.8055 39.5833 35.4166C39.618 34.236 39.2274 33.2464 38.4114 32.4478C37.5955 31.6492 36.5972 31.2499 35.4166 31.2499C34.2361 31.2499 33.2465 31.6492 32.4479 32.4478C31.6493 33.2464 31.25 34.236 31.25 35.4166C31.25 36.5971 31.6493 37.5867 32.4479 38.3853C33.2465 39.1839 34.2361 39.5833 35.4166 39.5833ZM35.4166 43.7499C33.125 43.7499 31.1632 42.9339 29.5312 41.302C27.8993 39.6701 27.0833 37.7083 27.0833 35.4166C27.0833 33.1249 27.8993 31.1631 29.5312 29.5312C31.1632 27.8992 33.125 27.0833 35.4166 27.0833C37.7083 27.0833 39.6701 27.8992 41.3021 29.5312C42.934 31.1631 43.75 33.1249 43.75 35.4166C43.75 36.2152 43.6545 36.9704 43.4635 37.6822C43.2726 38.394 42.9861 39.0624 42.6042 39.6874L47.9166 44.9999L45 47.9166L39.6875 42.6041C39.0625 42.986 38.3941 43.2725 37.6823 43.4635C36.9705 43.6544 36.2153 43.7499 35.4166 43.7499Z" fill="white"/>
</g>
</svg>
