<svg width="237" height="20" viewBox="0 0 237 20" fill="none" xmlns="http://www.w3.org/2000/svg">
<path d="M236.304 0.12398V2.85153H234.682C234.09 2.85153 233.69 2.97551 233.484 3.22347C233.277 3.47143 233.174 3.84337 233.174 4.33929V6.29197H236.201L235.798 9.35013H233.174V17.1918H230.012V9.35013H227.378V6.29197H230.012V4.03967C230.012 2.75855 230.37 1.76671 231.087 1.06416C231.803 0.35472 232.757 0 233.949 0C234.961 0 235.746 0.0413267 236.304 0.12398Z" fill="white"/>
<path d="M202.977 4.5C202.877 4.4 202.777 4.4 202.577 4.4C202.277 4.4 202.077 4.4 201.777 4.3C200.077 3.9 198.877 2.6 198.777 0.9V0.5C198.777 0.2 198.577 0 198.277 0H195.177C194.877 0 194.677 0.2 194.677 0.5V13C194.677 14.2 193.677 15.1 192.577 15.1C191.877 15.1 191.277 14.8 190.877 14.3C190.177 13.4 190.377 12 191.277 11.3C191.677 11 192.077 11 192.877 11C192.977 11 193.177 11 193.277 10.9C193.377 10.8 193.477 10.7 193.477 10.5V7.2C193.477 7 193.277 6.7 193.077 6.7C191.477 6.5 189.877 6.9 188.677 7.9C187.577 8.9 186.777 10.3 186.577 12C186.277 13.9 186.977 15.9 188.277 17.2C189.477 18.5 191.177 19.1 192.777 19.1C194.377 19.1 195.977 18.5 197.177 17.3C198.377 16.1 199.077 14.5 199.077 12.8V7.3C200.277 7.9 201.577 8.3 202.877 8.3C203.177 8.3 203.377 8.1 203.377 7.8V4.8C203.177 4.7 203.077 4.6 202.977 4.5Z" fill="white"/>
<path d="M157.849 3.46C157.611 3.46 157.379 3.53038 157.182 3.66224C156.985 3.79409 156.831 3.98151 156.74 4.20078C156.649 4.42005 156.625 4.66133 156.672 4.89411C156.718 5.12689 156.832 5.34071 157 5.50853C157.168 5.67635 157.382 5.79064 157.614 5.83694C157.847 5.88324 158.088 5.85948 158.308 5.76866C158.527 5.67783 158.714 5.52402 158.846 5.32668C158.978 5.12935 159.049 4.89734 159.049 4.66C159.049 4.34174 158.922 4.03652 158.697 3.81147C158.472 3.58643 158.167 3.46 157.849 3.46ZM162.449 5.88C162.429 5.0503 162.274 4.2294 161.989 3.45C161.734 2.78313 161.339 2.17928 160.829 1.68C160.333 1.16743 159.728 0.774176 159.059 0.53C158.281 0.236161 157.459 0.07721 156.629 0.0599999C155.569 -5.58794e-08 155.229 0 152.509 0C149.789 0 149.449 -5.58794e-08 148.389 0.0599999C147.558 0.07721 146.736 0.236161 145.959 0.53C145.29 0.776649 144.685 1.16956 144.189 1.68C143.676 2.17518 143.283 2.78044 143.039 3.45C142.745 4.22734 142.586 5.04915 142.569 5.88C142.509 6.94 142.509 7.28 142.509 10C142.509 12.72 142.509 13.06 142.569 14.12C142.586 14.9508 142.745 15.7727 143.039 16.55C143.283 17.2196 143.676 17.8248 144.189 18.32C144.685 18.8304 145.29 19.2234 145.959 19.47C146.736 19.7638 147.558 19.9228 148.389 19.94C149.449 20 149.789 20 152.509 20C155.229 20 155.569 20 156.629 19.94C157.459 19.9228 158.281 19.7638 159.059 19.47C159.728 19.2258 160.333 18.8326 160.829 18.32C161.341 17.8226 161.737 17.2182 161.989 16.55C162.274 15.7706 162.429 14.9497 162.449 14.12C162.449 13.06 162.509 12.72 162.509 10C162.509 7.28 162.509 6.94 162.449 5.88ZM160.649 14C160.641 14.6348 160.526 15.2637 160.309 15.86C160.149 16.2952 159.892 16.6884 159.559 17.01C159.234 17.3405 158.842 17.5964 158.409 17.76C157.812 17.9778 157.183 18.0927 156.549 18.1C155.549 18.15 155.179 18.16 152.549 18.16C149.919 18.16 149.549 18.16 148.549 18.1C147.889 18.1123 147.233 18.0109 146.609 17.8C146.194 17.6281 145.82 17.3728 145.509 17.05C145.177 16.7287 144.923 16.3352 144.769 15.9C144.524 15.2952 144.389 14.6519 144.369 14C144.369 13 144.309 12.63 144.309 10C144.309 7.37 144.309 7 144.369 6C144.373 5.35106 144.491 4.70795 144.719 4.1C144.895 3.67791 145.165 3.30166 145.509 3C145.812 2.65617 146.188 2.3831 146.609 2.2C147.218 1.98004 147.861 1.86508 148.509 1.86C149.509 1.86 149.879 1.8 152.509 1.8C155.139 1.8 155.509 1.8 156.509 1.86C157.143 1.86728 157.772 1.98225 158.369 2.2C158.823 2.36865 159.231 2.64285 159.559 3C159.886 3.30718 160.142 3.68273 160.309 4.1C160.531 4.70893 160.646 5.35178 160.649 6C160.699 7 160.709 7.37 160.709 10C160.709 12.63 160.699 13 160.649 14ZM152.509 4.87C151.494 4.87198 150.504 5.17453 149.661 5.73942C148.819 6.30431 148.163 7.1062 147.776 8.04375C147.389 8.98131 147.289 10.0125 147.488 11.0069C147.687 12.0014 148.177 12.9145 148.895 13.631C149.612 14.3474 150.527 14.835 151.521 15.0321C152.516 15.2293 153.547 15.1271 154.484 14.7385C155.421 14.35 156.221 13.6924 156.785 12.849C157.348 12.0056 157.649 11.0142 157.649 10C157.65 9.3251 157.518 8.65661 157.26 8.03296C157.002 7.40931 156.623 6.84281 156.145 6.36605C155.668 5.88929 155.1 5.51168 154.476 5.25493C153.852 4.99818 153.183 4.86736 152.509 4.87ZM152.509 13.33C151.85 13.33 151.206 13.1347 150.658 12.7688C150.111 12.4029 149.684 11.8828 149.432 11.2743C149.18 10.6659 149.114 9.99631 149.243 9.35035C149.371 8.70439 149.688 8.11104 150.154 7.64533C150.62 7.17963 151.213 6.86247 151.859 6.73398C152.505 6.6055 153.174 6.67144 153.783 6.92348C154.391 7.17552 154.911 7.60234 155.277 8.14995C155.643 8.69757 155.839 9.34139 155.839 10C155.839 10.4373 155.752 10.8703 155.585 11.2743C155.418 11.6784 155.172 12.0454 154.863 12.3547C154.554 12.6639 154.187 12.9092 153.783 13.0765C153.379 13.2439 152.946 13.33 152.509 13.33Z" fill="white"/>
<path d="M17.9549 0H21.3284L13.9584 8.4718L22.6287 20H15.8399L10.5227 13.0082L4.43858 20H1.06309L8.94608 10.9385L0.628662 0H7.58975L12.396 6.39077L17.9549 0ZM16.771 17.9692H18.6402L6.57403 1.9241H4.5681L16.771 17.9692Z" fill="white"/>
<path d="M118.502 7.04863C118.565 5.198 118.167 3.36122 117.345 1.70884C116.787 1.03083 116.013 0.573275 115.157 0.415913C111.618 0.0894815 108.064 -0.0443119 104.511 0.0151056C100.971 -0.0470087 97.4298 0.0824673 93.9031 0.402984C93.2058 0.53191 92.5606 0.864354 92.0461 1.35975C90.9013 2.43288 90.7741 4.26884 90.647 5.82035C90.4624 8.60992 90.4624 11.4089 90.647 14.1985C90.6837 15.0718 90.8117 15.9386 91.0285 16.7844C91.1819 17.4374 91.4922 18.0415 91.9316 18.5427C92.4496 19.0644 93.1099 19.4157 93.8268 19.5512C96.5689 19.8953 99.3319 20.0379 102.094 19.9779C106.546 20.0425 110.451 19.9779 115.068 19.6159C115.802 19.4887 116.481 19.1369 117.014 18.6074C117.37 18.2453 117.636 17.802 117.79 17.3145C118.245 15.8956 118.468 14.4107 118.451 12.9185C118.502 12.1945 118.502 7.82438 118.502 7.04863ZM101.636 13.6943V5.69105L109.166 9.71206C107.055 10.9016 104.269 12.2462 101.636 13.6943Z" fill="white"/>
<path d="M65.0387 0.000139831H48.0987C47.9082 -0.00250479 47.7192 0.0323873 47.5422 0.102824C47.3653 0.17326 47.204 0.27786 47.0675 0.410652C46.931 0.543443 46.8219 0.701824 46.7467 0.876749C46.6714 1.05167 46.6313 1.23972 46.6287 1.43014V18.5701C46.6313 18.7606 46.6714 18.9486 46.7467 19.1235C46.8219 19.2985 46.931 19.4568 47.0675 19.5896C47.204 19.7224 47.3653 19.827 47.5422 19.8975C47.7192 19.9679 47.9082 20.0028 48.0987 20.0001H65.0387C65.2291 20.0028 65.4182 19.9679 65.5951 19.8975C65.772 19.827 65.9334 19.7224 66.0699 19.5896C66.2064 19.4568 66.3154 19.2985 66.3907 19.1235C66.466 18.9486 66.5061 18.7606 66.5087 18.5701V1.43014C66.5061 1.23972 66.466 1.05167 66.3907 0.876749C66.3154 0.701824 66.2064 0.543443 66.0699 0.410652C65.9334 0.27786 65.772 0.17326 65.5951 0.102824C65.4182 0.0323873 65.2291 -0.00250479 65.0387 0.000139831ZM52.6587 16.7401H49.6587V7.74014H52.6587V16.7401ZM51.1587 6.48014C50.7449 6.48014 50.3481 6.31578 50.0556 6.02323C49.763 5.73067 49.5987 5.33388 49.5987 4.92014C49.5987 4.5064 49.763 4.10961 50.0556 3.81705C50.3481 3.5245 50.7449 3.36014 51.1587 3.36014C51.3784 3.33522 51.6008 3.35699 51.8115 3.42402C52.0222 3.49105 52.2164 3.60183 52.3813 3.7491C52.5462 3.89637 52.6782 4.07682 52.7685 4.27862C52.8589 4.48043 52.9056 4.69904 52.9056 4.92014C52.9056 5.14124 52.8589 5.35985 52.7685 5.56166C52.6782 5.76346 52.5462 5.94391 52.3813 6.09118C52.2164 6.23845 52.0222 6.34923 51.8115 6.41626C51.6008 6.48329 51.3784 6.50505 51.1587 6.48014ZM63.4787 16.7401H60.4787V11.9101C60.4787 10.7001 60.0487 9.91014 58.9587 9.91014C58.6213 9.91261 58.2929 10.0184 58.0175 10.2133C57.7421 10.4082 57.5331 10.6828 57.4187 11.0001C57.3404 11.2352 57.3065 11.4827 57.3187 11.7301V16.7301H54.3187C54.3187 16.7301 54.3187 8.55014 54.3187 7.73014H57.3187V9.00014C57.5912 8.52725 57.9876 8.13766 58.4651 7.87334C58.9426 7.60902 59.4832 7.47999 60.0287 7.50014C62.0287 7.50014 63.4787 8.79014 63.4787 11.5601V16.7401Z" fill="white"/>
</svg>
