<svg width="51" height="51" viewBox="0 0 51 51" fill="none" xmlns="http://www.w3.org/2000/svg">
<mask id="mask0_1_163" style="mask-type:alpha" maskUnits="userSpaceOnUse" x="0" y="0" width="51" height="51">
<rect x="0.273193" y="0.92334" width="50" height="50" fill="#D9D9D9"/>
</mask>
<g mask="url(#mask0_1_163)">
<path d="M25.0128 46.59C25.1517 46.59 25.2906 46.5552 25.4294 46.4858C25.5683 46.4164 25.6725 46.3469 25.7419 46.2775L42.8253 29.1941C43.242 28.7775 43.5458 28.3087 43.7367 27.7879C43.9277 27.2671 44.0232 26.7462 44.0232 26.2254C44.0232 25.6698 43.9277 25.1403 43.7367 24.6368C43.5458 24.1334 43.242 23.6907 42.8253 23.3087L33.9711 14.4545C33.5892 14.0379 33.1465 13.7341 32.643 13.5431C32.1395 13.3521 31.61 13.2566 31.0544 13.2566C30.5336 13.2566 30.0128 13.3521 29.4919 13.5431C28.9711 13.7341 28.5024 14.0379 28.0857 14.4545L27.5128 15.0275L31.3669 18.9337C31.8878 19.4198 32.2697 19.9754 32.5128 20.6004C32.7558 21.2254 32.8774 21.8851 32.8774 22.5795C32.8774 24.0379 32.3826 25.2618 31.393 26.2514C30.4034 27.241 29.1794 27.7358 27.7211 27.7358C27.0267 27.7358 26.3583 27.6143 25.7159 27.3712C25.0735 27.1282 24.5093 26.7636 24.0232 26.2775L20.1169 22.4233L11.0024 31.5379C10.8982 31.6421 10.8201 31.7549 10.768 31.8764C10.7159 31.998 10.6899 32.1282 10.6899 32.2671C10.6899 32.5448 10.794 32.7966 11.0024 33.0223C11.2107 33.248 11.4537 33.3608 11.7315 33.3608C11.8704 33.3608 12.0093 33.3261 12.1482 33.2566C12.2871 33.1872 12.3912 33.1177 12.4607 33.0483L19.544 25.965L22.4607 28.8816L15.4294 35.965C15.3253 36.0691 15.2472 36.182 15.1951 36.3035C15.143 36.425 15.1169 36.5552 15.1169 36.6941C15.1169 36.9719 15.2211 37.215 15.4294 37.4233C15.6378 37.6316 15.8808 37.7358 16.1586 37.7358C16.2975 37.7358 16.4364 37.7011 16.5753 37.6316C16.7142 37.5622 16.8183 37.4927 16.8878 37.4233L23.9711 30.3921L26.8878 33.3087L19.8565 40.3921C19.7524 40.4615 19.6742 40.5657 19.6222 40.7046C19.5701 40.8434 19.544 40.9823 19.544 41.1212C19.544 41.399 19.6482 41.6421 19.8565 41.8504C20.0649 42.0587 20.3079 42.1629 20.5857 42.1629C20.7246 42.1629 20.8548 42.1368 20.9763 42.0848C21.0978 42.0327 21.2107 41.9546 21.3149 41.8504L28.3982 34.8191L31.3149 37.7358L24.2315 44.8191C24.1274 44.9233 24.0492 45.0361 23.9972 45.1577C23.9451 45.2792 23.919 45.4094 23.919 45.5483C23.919 45.8261 24.0319 46.0691 24.2576 46.2775C24.4833 46.4858 24.735 46.59 25.0128 46.59ZM24.9607 50.7566C23.676 50.7566 22.5388 50.3313 21.5492 49.4806C20.5597 48.6299 19.9781 47.5622 19.8044 46.2775C18.6239 46.1039 17.6343 45.6177 16.8357 44.8191C16.0371 44.0205 15.551 43.0309 15.3774 41.8504C14.1968 41.6768 13.2159 41.182 12.4347 40.366C11.6534 39.55 11.176 38.5691 11.0024 37.4233C9.68292 37.2497 8.60653 36.6768 7.77319 35.7046C6.93986 34.7323 6.52319 33.5865 6.52319 32.2671C6.52319 31.5726 6.6534 30.9042 6.91382 30.2618C7.17424 29.6195 7.5475 29.0552 8.03361 28.5691L20.1169 16.5379L26.9399 23.3608C27.0093 23.465 27.1135 23.5431 27.2524 23.5952C27.3913 23.6473 27.5301 23.6733 27.669 23.6733C27.9815 23.6733 28.2419 23.5778 28.4503 23.3868C28.6586 23.1959 28.7628 22.9441 28.7628 22.6316C28.7628 22.4927 28.7367 22.3539 28.6847 22.215C28.6326 22.0761 28.5544 21.9719 28.4503 21.9025L21.0024 14.4545C20.6204 14.0379 20.1777 13.7341 19.6742 13.5431C19.1708 13.3521 18.6413 13.2566 18.0857 13.2566C17.5649 13.2566 17.044 13.3521 16.5232 13.5431C16.0024 13.7341 15.5336 14.0379 15.1169 14.4545L7.77319 21.8504C7.46069 22.1629 7.20028 22.5275 6.99194 22.9441C6.78361 23.3608 6.64472 23.7775 6.57528 24.1941C6.50583 24.6108 6.50583 25.0361 6.57528 25.4702C6.64472 25.9042 6.78361 26.3122 6.99194 26.6941L3.97111 29.715C3.38083 28.9164 2.9468 28.0396 2.66903 27.0848C2.39125 26.1299 2.28708 25.1664 2.35653 24.1941C2.42597 23.2219 2.66903 22.2757 3.08569 21.3556C3.50236 20.4355 4.07528 19.6108 4.80444 18.8816L12.1482 11.5379C12.9815 10.7393 13.9103 10.1316 14.9347 9.71497C15.959 9.2983 17.0093 9.08997 18.0857 9.08997C19.1621 9.08997 20.2124 9.2983 21.2367 9.71497C22.261 10.1316 23.1725 10.7393 23.9711 11.5379L24.544 12.1108L25.1169 11.5379C25.9503 10.7393 26.8791 10.1316 27.9034 9.71497C28.9277 9.2983 29.9781 9.08997 31.0544 9.08997C32.1308 9.08997 33.1812 9.2983 34.2055 9.71497C35.2298 10.1316 36.1413 10.7393 36.9399 11.5379L45.7419 20.34C46.5406 21.1386 47.1482 22.0587 47.5649 23.1004C47.9815 24.142 48.1899 25.2011 48.1899 26.2775C48.1899 27.3539 47.9815 28.4042 47.5649 29.4285C47.1482 30.4528 46.5406 31.3643 45.7419 32.1629L28.6586 49.1941C28.1725 49.6802 27.6083 50.0622 26.9659 50.34C26.3235 50.6177 25.6551 50.7566 24.9607 50.7566Z" fill="#E0DEDE"/>
</g>
</svg>
