<svg width="50" height="50" viewBox="0 0 50 50" fill="none" xmlns="http://www.w3.org/2000/svg">
<mask id="mask0_1_194" style="mask-type:alpha" maskUnits="userSpaceOnUse" x="0" y="0" width="50" height="50">
<rect width="50" height="50" fill="#D9D9D9"/>
</mask>
<g mask="url(#mask0_1_194)">
<path d="M14.1667 41.6666C13.125 41.6666 12.2396 41.302 11.5104 40.5728C10.7813 39.8437 10.4167 38.9583 10.4167 37.9166C10.4167 37.1874 10.625 36.5017 11.0417 35.8593C11.4583 35.2169 12.0139 34.7569 12.7083 34.4791L20.8333 31.2499V26.5624C18.9583 28.7499 16.7795 30.4253 14.2969 31.5885C11.8142 32.7517 9.13194 33.3333 6.25 33.3333V29.1666C8.61111 29.1666 10.7552 28.6805 12.6823 27.7083C14.6094 26.736 16.3542 25.3471 17.9167 23.5416L20.7292 20.2083C21.1458 19.7221 21.6319 19.3576 22.1875 19.1145C22.7431 18.8714 23.3333 18.7499 23.9583 18.7499H26.0417C26.6667 18.7499 27.2569 18.8714 27.8125 19.1145C28.3681 19.3576 28.8542 19.7221 29.2708 20.2083L32.0833 23.5416C33.6458 25.3471 35.3906 26.736 37.3177 27.7083C39.2448 28.6805 41.3889 29.1666 43.75 29.1666V33.3333C40.8681 33.3333 38.1858 32.7517 35.7031 31.5885C33.2205 30.4253 31.0417 28.7499 29.1667 26.5624V31.2499L37.2917 34.4791C37.9861 34.7569 38.5417 35.2169 38.9583 35.8593C39.375 36.5017 39.5833 37.1874 39.5833 37.9166C39.5833 38.9583 39.2188 39.8437 38.4896 40.5728C37.7604 41.302 36.875 41.6666 35.8333 41.6666H20.8333V40.6249C20.8333 39.7221 21.1285 38.9756 21.7188 38.3853C22.309 37.7951 23.0556 37.4999 23.9583 37.4999H30.2083C30.5208 37.4999 30.7726 37.4044 30.9635 37.2135C31.1545 37.0225 31.25 36.7708 31.25 36.4583C31.25 36.1458 31.1545 35.894 30.9635 35.703C30.7726 35.5121 30.5208 35.4166 30.2083 35.4166H23.9583C22.5 35.4166 21.2674 35.9201 20.2604 36.927C19.2535 37.934 18.75 39.1666 18.75 40.6249V41.6666H14.1667ZM25 16.6666C23.8542 16.6666 22.8733 16.2586 22.0573 15.4426C21.2413 14.6267 20.8333 13.6458 20.8333 12.4999C20.8333 11.3541 21.2413 10.3732 22.0573 9.55721C22.8733 8.74124 23.8542 8.33325 25 8.33325C26.1458 8.33325 27.1267 8.74124 27.9427 9.55721C28.7587 10.3732 29.1667 11.3541 29.1667 12.4999C29.1667 13.6458 28.7587 14.6267 27.9427 15.4426C27.1267 16.2586 26.1458 16.6666 25 16.6666Z" fill="white"/>
</g>
</svg>
